# xmcd
#
# Track frame offsets: 
#        150
#        13725
#        24477
#        34562
#        47297
#        62265
#        75035
#        84607
#        96687
#        108895
#        123145
#
# Disc length: 1783 seconds
#
# Revision: 1
# Processed by: cddbd v1.5.2PL0 Copyright (c) Steve Scherf et al.
# Submitted via: ExactAudioCopyFreeDBPlugin 1.0
#
DISCID=6f06f50b
DTITLE=Loretta Lynn - Coal Miner's Daughter
DYEAR=1980
DGENRE=Country
TTITLE0=Coal Miner's Daughter
TTITLE1=Hello Darlin'
TTITLE2=Less Of Me
TTITLE3=Any One, Any Worse, Any Where
TTITLE4=For The Good Times
TTITLE5=The Man Of The House
TTITLE6=What Makes Me Tick
TTITLE7=Another Man Loved Me Last Night
TTITLE8=It'll Be Open Season  On You
TTITLE9=Too Far
TTITLE10=Snowbird
EXTD=
EXTT0=
EXTT1=
EXTT2=
EXTT3=
EXTT4=
EXTT5=
EXTT6=
EXTT7=
EXTT8=
EXTT9=
EXTT10=
PLAYORDER=
